<svg width="20" height="21" viewBox="0 0 20 21" fill="none" xmlns="http://www.w3.org/2000/svg">
<path d="M18.9833 0.793919C18.9222 0.730045 18.8477 0.681921 18.7657 0.653365C18.6837 0.624809 18.5964 0.616604 18.5108 0.629403L12.9565 1.45198C12.8203 1.47421 12.6969 1.54847 12.6101 1.66037L5.26032 10.972C4.94838 10.8287 4.60244 10.7866 4.26734 10.8511C3.93223 10.9157 3.6234 11.0839 3.38088 11.3339L2.59341 12.1674C2.54166 12.2214 2.50061 12.2855 2.4726 12.3561C2.44459 12.4267 2.43017 12.5023 2.43017 12.5787C2.43017 12.6551 2.44459 12.7308 2.4726 12.8013C2.50061 12.8719 2.54166 12.936 2.59341 12.99L3.77987 14.2403L1.92143 16.1377H1.69044C1.24392 16.1377 0.815535 16.3223 0.498815 16.6511C0.182096 16.9798 0.00277341 17.4262 0 17.8926V18.8687C0.00277341 19.3351 0.182096 19.7814 0.498815 20.1102C0.815535 20.439 1.24392 20.6235 1.69044 20.6235H2.61441C3.05996 20.6235 3.48726 20.4387 3.80231 20.1096C4.11736 19.7805 4.29435 19.3341 4.29435 18.8687V18.6274L6.12128 16.719L7.30774 17.9694C7.41391 18.0792 7.5573 18.1408 7.70673 18.1408C7.85616 18.1408 7.99955 18.0792 8.10571 17.9694L8.89319 17.1358C9.14304 16.8824 9.31077 16.5537 9.3729 16.1958C9.43503 15.8379 9.38845 15.4686 9.23968 15.1397L18.1539 7.46229C18.2595 7.36572 18.33 7.23399 18.3534 7.08938L19.1513 1.28747C19.164 1.19712 19.1553 1.10491 19.1261 1.01888C19.0968 0.932849 19.0478 0.855614 18.9833 0.793919V0.793919ZM3.18139 18.8687C3.17864 19.0239 3.11769 19.1717 3.01166 19.2804C2.90562 19.3891 2.76298 19.45 2.61441 19.45H1.69044C1.54187 19.45 1.39922 19.3891 1.29319 19.2804C1.18716 19.1717 1.12621 19.0239 1.12346 18.8687V17.8926C1.13152 17.7413 1.19479 17.599 1.30026 17.4949C1.40573 17.3909 1.54537 17.333 1.69044 17.3332H1.92143L3.18139 18.6493V18.8687ZM3.73787 17.5526L2.9399 16.719L4.53584 15.0629L5.32331 15.8965L3.73787 17.5526ZM8.10571 16.3132L7.70673 16.719L3.73787 12.5842L4.13685 12.1674C4.18854 12.1134 4.24991 12.0705 4.31747 12.0412C4.38504 12.012 4.45745 11.9969 4.53059 11.9969C4.60373 11.9969 4.67615 12.012 4.74371 12.0412C4.81127 12.0705 4.87264 12.1134 4.92433 12.1674L8.07422 15.4577C8.18501 15.568 8.25028 15.7191 8.25617 15.8788C8.26205 16.0385 8.20808 16.1944 8.10571 16.3132V16.3132ZM17.2719 6.70551L8.5362 14.2732L7.70673 13.4068L14.227 6.59584C14.3163 6.48218 14.3619 6.3379 14.355 6.19105C14.3481 6.0442 14.2892 5.90528 14.1896 5.80131C14.0901 5.69735 13.9571 5.63577 13.8165 5.62856C13.676 5.62135 13.5378 5.66901 13.429 5.76229L6.90876 12.5842L6.07929 11.7178L13.3345 2.58166L17.9334 1.90166L17.2719 6.70551Z" fill="white"/>
</svg>
