<svg width="20" height="21" viewBox="0 0 20 21" fill="none" xmlns="http://www.w3.org/2000/svg">
<path d="M16.987 10.9664H12.5576C11.9702 10.9664 11.4068 11.2101 10.9915 11.644C10.5762 12.0778 10.3428 12.6663 10.3428 13.2799V17.8258C10.3428 18.4394 10.5762 19.0278 10.9915 19.4617C11.4068 19.8956 11.9702 20.1393 12.5576 20.1393H16.987C17.5744 20.1393 18.1377 19.8956 18.5531 19.4617C18.9684 19.0278 19.2018 18.4394 19.2018 17.8258V13.3261C19.2077 13.0184 19.1547 12.7126 19.0461 12.4266C18.9374 12.1405 18.7752 11.88 18.569 11.6603C18.3627 11.4405 18.1166 11.2659 17.8449 11.1468C17.5733 11.0277 17.2816 10.9663 16.987 10.9664ZM17.74 17.9068C17.7415 18.0105 17.7231 18.1135 17.6858 18.2097C17.6484 18.3058 17.593 18.3931 17.5228 18.4665C17.4526 18.5398 17.369 18.5977 17.277 18.6367C17.1849 18.6757 17.0863 18.695 16.987 18.6934H12.5576C12.4583 18.695 12.3597 18.6757 12.2676 18.6367C12.1756 18.5977 12.092 18.5398 12.0218 18.4665C11.9515 18.3931 11.8961 18.3058 11.8588 18.2097C11.8215 18.1135 11.8031 18.0105 11.8045 17.9068V13.3261C11.8031 13.2224 11.8215 13.1194 11.8588 13.0233C11.8961 12.9271 11.9515 12.8398 12.0218 12.7665C12.092 12.6931 12.1756 12.6352 12.2676 12.5962C12.3597 12.5573 12.4583 12.538 12.5576 12.5395H16.987C17.0863 12.538 17.1849 12.5573 17.277 12.5962C17.369 12.6352 17.4526 12.6931 17.5228 12.7665C17.593 12.8398 17.6484 12.9271 17.6858 13.0233C17.7231 13.1194 17.7415 13.2224 17.74 13.3261V17.9068ZM6.66636 10.9664H2.21474C1.62735 10.9664 1.06402 11.2101 0.648681 11.644C0.233338 12.0778 0 12.6663 0 13.2799V17.8258C0 18.4394 0.233338 19.0278 0.648681 19.4617C1.06402 19.8956 1.62735 20.1393 2.21474 20.1393H6.57777C7.16515 20.1393 7.72848 19.8956 8.14382 19.4617C8.55917 19.0278 8.7925 18.4394 8.7925 17.8258V13.3261C8.7984 13.0184 8.74546 12.7126 8.6368 12.4266C8.52814 12.1405 8.36594 11.88 8.15969 11.6603C7.95345 11.4405 7.7073 11.2659 7.43567 11.1468C7.16403 11.0277 6.87238 10.9663 6.57777 10.9664H6.66636ZM7.41937 17.9068C7.41937 18.1154 7.34003 18.3155 7.19882 18.463C7.0576 18.6105 6.86607 18.6934 6.66636 18.6934H2.21474C2.11487 18.6904 2.01657 18.6667 1.92555 18.6237C1.83454 18.5806 1.75263 18.5191 1.68461 18.4427C1.61659 18.3662 1.56381 18.2764 1.52935 18.1785C1.49488 18.0805 1.47943 17.9764 1.48387 17.8721V13.3261C1.48387 13.1175 1.56321 12.9174 1.70443 12.7699C1.84564 12.6224 2.03717 12.5395 2.23688 12.5395H6.57777C6.77748 12.5395 6.96901 12.6224 7.11023 12.7699C7.25144 12.9174 7.33078 13.1175 7.33078 13.3261L7.41937 17.9068ZM6.57777 0.139313H2.21474C1.62735 0.139313 1.06402 0.383053 0.648681 0.816914C0.233338 1.25078 0 1.83922 0 2.45279V7.04504C0 7.34885 0.0572859 7.64968 0.168587 7.93037C0.279888 8.21105 0.443024 8.46609 0.648681 8.68091C1.06402 9.11477 1.62735 9.35851 2.21474 9.35851H6.57777C7.16515 9.35851 7.72848 9.11477 8.14382 8.68091C8.55917 8.24705 8.7925 7.65861 8.7925 7.04504V2.48749C8.79691 2.18077 8.74288 1.8762 8.63355 1.5915C8.52422 1.3068 8.36178 1.04765 8.15569 0.829137C7.94959 0.610622 7.70395 0.437102 7.43305 0.318675C7.16216 0.200248 6.87143 0.139278 6.57777 0.139313V0.139313ZM7.33078 7.07974C7.32792 7.28742 7.24766 7.48576 7.10706 7.63263C6.96646 7.7795 6.77659 7.86333 6.57777 7.86632H2.21474C2.01401 7.85729 1.82477 7.76604 1.68798 7.61233C1.55119 7.45862 1.47786 7.25481 1.48387 7.04504V2.48749C1.48673 2.27981 1.56699 2.08147 1.70759 1.9346C1.84819 1.78773 2.03806 1.7039 2.23688 1.70091H6.57777C6.77659 1.7039 6.96646 1.78773 7.10706 1.9346C7.24766 2.08147 7.32792 2.27981 7.33078 2.48749V7.07974ZM16.9427 0.139313H12.5576C11.9702 0.139313 11.4068 0.383053 10.9915 0.816914C10.5762 1.25078 10.3428 1.83922 10.3428 2.45279V7.04504C10.3428 7.34885 10.4001 7.64968 10.5114 7.93037C10.6227 8.21105 10.7858 8.46609 10.9915 8.68091C11.4068 9.11477 11.9702 9.35851 12.5576 9.35851H16.987C17.5744 9.35851 18.1377 9.11477 18.5531 8.68091C18.9684 8.24705 19.2018 7.65861 19.2018 7.04504V2.48749C19.2062 2.18077 19.1521 1.8762 19.0428 1.5915C18.9335 1.3068 18.771 1.04765 18.5649 0.829137C18.3588 0.610622 18.1132 0.437102 17.8423 0.318675C17.5714 0.200248 17.2807 0.139278 16.987 0.139313H16.9427ZM17.6957 7.07974C17.6878 7.27453 17.6109 7.4593 17.48 7.59823C17.349 7.73715 17.1734 7.82033 16.987 7.83162H12.5576C12.3578 7.83162 12.1663 7.74875 12.0251 7.60124C11.8839 7.45372 11.8045 7.25365 11.8045 7.04504V2.48749C11.8045 2.27888 11.8839 2.07881 12.0251 1.93129C12.1663 1.78378 12.3578 1.70091 12.5576 1.70091H16.987C17.1867 1.70091 17.3783 1.78378 17.5195 1.93129C17.6607 2.07881 17.74 2.27888 17.74 2.48749L17.6957 7.07974Z" fill="white"/>
</svg>
