<svg width="21" height="22" viewBox="0 0 21 22" fill="none" xmlns="http://www.w3.org/2000/svg">
<path d="M17.7444 11.4491H13.1174C12.5038 11.4491 11.9154 11.7037 11.4815 12.1569C11.0477 12.6101 10.8039 13.2248 10.8039 13.8657V18.6143C10.8039 19.2553 11.0477 19.8699 11.4815 20.3232C11.9154 20.7764 12.5038 21.031 13.1174 21.031H17.7444C18.3579 21.031 18.9464 20.7764 19.3802 20.3232C19.8141 19.8699 20.0578 19.2553 20.0578 18.6143V13.914C20.064 13.5926 20.0087 13.2732 19.8952 12.9744C19.7817 12.6756 19.6122 12.4034 19.3968 12.1739C19.1814 11.9443 18.9242 11.762 18.6405 11.6375C18.3568 11.5131 18.0521 11.449 17.7444 11.4491ZM18.5309 18.6989C18.5325 18.8073 18.5132 18.9149 18.4742 19.0153C18.4353 19.1157 18.3774 19.2069 18.304 19.2836C18.2307 19.3602 18.1433 19.4206 18.0472 19.4614C17.9511 19.5021 17.8481 19.5222 17.7444 19.5206H13.1174C13.0137 19.5222 12.9107 19.5021 12.8146 19.4614C12.7184 19.4206 12.6311 19.3602 12.5577 19.2836C12.4844 19.2069 12.4265 19.1157 12.3875 19.0153C12.3485 18.9149 12.3293 18.8073 12.3308 18.6989V13.914C12.3293 13.8057 12.3485 13.6981 12.3875 13.5977C12.4265 13.4973 12.4844 13.406 12.5577 13.3294C12.6311 13.2528 12.7184 13.1923 12.8146 13.1516C12.9107 13.1109 13.0137 13.0907 13.1174 13.0924H17.7444C17.8481 13.0907 17.9511 13.1109 18.0472 13.1516C18.1433 13.1923 18.2307 13.2528 18.304 13.3294C18.3774 13.406 18.4353 13.4973 18.4742 13.5977C18.5132 13.6981 18.5325 13.8057 18.5309 13.914V18.6989ZM6.96356 11.4491H2.31347C1.6999 11.4491 1.11146 11.7037 0.677601 12.1569C0.24374 12.6101 0 13.2248 0 13.8657V18.6143C0 19.2553 0.24374 19.8699 0.677601 20.3232C1.11146 20.7764 1.6999 21.031 2.31347 21.031H6.87102C7.48459 21.031 8.07303 20.7764 8.50689 20.3232C8.94075 19.8699 9.18449 19.2553 9.18449 18.6143V13.914C9.19065 13.5926 9.13536 13.2732 9.02185 12.9744C8.90835 12.6756 8.73891 12.4034 8.52347 12.1739C8.30803 11.9443 8.05091 11.762 7.76717 11.6375C7.48342 11.5131 7.17876 11.449 6.87102 11.4491H6.96356ZM7.75014 18.6989C7.75014 18.9168 7.66727 19.1258 7.51976 19.2799C7.37224 19.434 7.17217 19.5206 6.96356 19.5206H2.31347C2.20916 19.5175 2.10647 19.4927 2.0114 19.4478C1.91633 19.4028 1.83077 19.3385 1.75972 19.2587C1.68866 19.1788 1.63353 19.085 1.59753 18.9827C1.56153 18.8804 1.54538 18.7716 1.55003 18.6627V13.914C1.55003 13.6961 1.6329 13.4871 1.78041 13.333C1.92793 13.1789 2.128 13.0924 2.33661 13.0924H6.87102C7.07963 13.0924 7.2797 13.1789 7.42722 13.333C7.57473 13.4871 7.6576 13.6961 7.6576 13.914L7.75014 18.6989ZM6.87102 0.139313H2.31347C1.6999 0.139313 1.11146 0.39392 0.677601 0.847123C0.24374 1.30033 0 1.915 0 2.55593V7.35291C0 7.67027 0.0598399 7.98451 0.176103 8.27771C0.292366 8.57091 0.462775 8.83731 0.677601 9.06172C1.11146 9.51492 1.6999 9.76953 2.31347 9.76953H6.87102C7.48459 9.76953 8.07303 9.51492 8.50689 9.06172C8.94075 8.60851 9.18449 7.99384 9.18449 7.35291V2.59218C9.1891 2.27179 9.13265 1.95364 9.01845 1.65624C8.90425 1.35885 8.73457 1.08815 8.51929 0.859891C8.304 0.631634 8.04741 0.450379 7.76444 0.326672C7.48147 0.202965 7.17777 0.139277 6.87102 0.139313ZM7.6576 7.38916C7.65461 7.6061 7.57078 7.81328 7.42391 7.9667C7.27704 8.12012 7.0787 8.20769 6.87102 8.21081H2.31347C2.1038 8.20138 1.90612 8.10606 1.76323 7.94549C1.62035 7.78493 1.54375 7.57204 1.55003 7.35291V2.59218C1.55302 2.37524 1.63685 2.16805 1.78372 2.01464C1.93059 1.86122 2.12893 1.77365 2.33661 1.77053H6.87102C7.0787 1.77365 7.27704 1.86122 7.42391 2.01464C7.57078 2.16805 7.65461 2.37524 7.6576 2.59218V7.38916ZM17.6981 0.139313H13.1174C12.5038 0.139313 11.9154 0.39392 11.4815 0.847123C11.0477 1.30033 10.8039 1.915 10.8039 2.55593V7.35291C10.8039 7.67027 10.8638 7.98451 10.98 8.27771C11.0963 8.57091 11.2667 8.83731 11.4815 9.06172C11.9154 9.51492 12.5038 9.76953 13.1174 9.76953H17.7444C18.3579 9.76953 18.9464 9.51492 19.3802 9.06172C19.8141 8.60851 20.0578 7.99384 20.0578 7.35291V2.59218C20.0624 2.27179 20.006 1.95364 19.8918 1.65624C19.7776 1.35885 19.6079 1.08815 19.3926 0.859891C19.1773 0.631634 18.9207 0.450379 18.6378 0.326672C18.3548 0.202965 18.0511 0.139277 17.7444 0.139313H17.6981ZM18.4847 7.38916C18.4764 7.59263 18.3961 7.78565 18.2593 7.93076C18.1225 8.07588 17.939 8.16277 17.7444 8.17456H13.1174C12.9088 8.17456 12.7087 8.088 12.5612 7.93391C12.4137 7.77982 12.3308 7.57083 12.3308 7.35291V2.59218C12.3308 2.37426 12.4137 2.16527 12.5612 2.01118C12.7087 1.8571 12.9088 1.77053 13.1174 1.77053H17.7444C17.953 1.77053 18.153 1.8571 18.3005 2.01118C18.4481 2.16527 18.5309 2.37426 18.5309 2.59218L18.4847 7.38916Z" fill="#343434"/>
</svg>
