<svg width="13" height="19" viewBox="0 0 13 19" fill="none" xmlns="http://www.w3.org/2000/svg">
<path d="M10.7567 10.8013C13.1076 8.45051 13.1076 4.63895 10.7567 2.28766C8.40567 -0.0631714 4.59434 -0.0631714 2.24328 2.28766C-0.107785 4.63895 -0.107785 8.45051 2.24328 10.8013C3.08454 11.645 4.1582 12.2188 5.32712 12.4493V14.31H4.10835C4.06168 14.31 4.01547 14.3191 3.97236 14.337C3.92924 14.3548 3.89007 14.381 3.85709 14.414C3.8241 14.447 3.79795 14.4862 3.78013 14.5293C3.76231 14.5725 3.75316 14.6187 3.75323 14.6653V16.2491C3.75323 16.4451 3.91239 16.604 4.10835 16.6042H5.32712V18.1204C5.32712 18.2936 5.45131 18.4376 5.61553 18.4688V18.4755H7.26625C7.46221 18.4755 7.62137 18.3166 7.62137 18.1204H7.62159V16.6042H8.89188C9.08807 16.6042 9.24701 16.4453 9.24701 16.2491V14.6653C9.24716 14.6187 9.23808 14.5724 9.22029 14.5292C9.2025 14.4861 9.17635 14.4468 9.14335 14.4138C9.11034 14.3808 9.07114 14.3546 9.02798 14.3368C8.98483 14.319 8.93857 14.3099 8.89188 14.31H7.62182V12.4589C8.81013 12.2354 9.90298 11.6576 10.7567 10.8013V10.8013ZM6.50012 10.2703C4.44254 10.2703 2.77434 8.60231 2.77457 6.54473C2.77457 4.48715 4.44254 2.81896 6.50034 2.81896C8.55792 2.81896 10.2261 4.48692 10.2259 6.5445C10.2257 8.60208 8.5577 10.2703 6.50012 10.2703V10.2703Z" fill="#FA4A0C"/>
</svg>
