<svg width="18" height="21" viewBox="0 0 18 21" fill="none" xmlns="http://www.w3.org/2000/svg">
<path d="M14.5275 0.170898V1.39384H15.8433L13.2635 3.93713C12.72 3.34839 12.0521 2.90075 11.3133 2.63008C10.5744 2.35941 9.78518 2.27323 9.00873 2.37842C8.23227 2.48362 7.49019 2.77728 6.8419 3.23588C6.19362 3.69449 5.65715 4.30529 5.27545 5.01938H5.04751C3.76122 5.01334 2.5217 5.52279 1.58424 6.44282C0.646776 7.36285 0.0827779 8.62339 0.00841141 9.96479C-0.065955 11.3062 0.354973 12.6263 1.1845 13.6532C2.01402 14.6801 3.18896 15.3357 4.46732 15.4848V17.119H2.70602V18.3419H4.46732V20.1709H5.63807V18.396H7.47189V17.1731H5.63807V15.5389C6.43145 15.4427 7.19137 15.1499 7.85455 14.6849C8.51773 14.22 9.06499 13.5963 9.45077 12.8657H9.66834C11.002 12.8657 12.2811 12.313 13.2251 11.329C14.1691 10.3449 14.7008 9.00988 14.7036 7.61679C14.7056 6.66715 14.4583 5.73511 13.9887 4.92198L16.7861 2.15142V3.66657H17.9568V0.170898H14.5275ZM5.04751 14.3592C4.02533 14.3937 3.03192 14.0025 2.28581 13.2719C1.5397 12.5412 1.10202 11.5309 1.06904 10.4631C1.03607 9.39535 1.41051 8.35765 2.10998 7.57827C2.80946 6.7989 3.77668 6.34171 4.79886 6.30726C4.69936 6.73614 4.64722 7.17551 4.64345 7.61679C4.65402 8.73451 5.0052 9.81966 5.64605 10.7148C6.2869 11.61 7.1841 12.2686 8.20749 12.5951C7.85623 13.1338 7.38534 13.5756 6.83504 13.8828C6.28475 14.19 5.67144 14.3535 5.04751 14.3592V14.3592ZM8.73588 11.5129C7.904 11.2943 7.16539 10.7928 6.63641 10.0874C6.10744 9.38201 5.81818 8.51282 5.8142 7.61679C5.8138 7.21285 5.87322 6.81128 5.99033 6.42631C6.82117 6.64526 7.55846 7.14719 8.0857 7.85277C8.61294 8.55835 8.90005 9.42734 8.90165 10.3224C8.89971 10.7254 8.84391 11.1261 8.73588 11.5129ZM9.91699 11.6211C10.0212 11.1968 10.0734 10.7604 10.0724 10.3224C10.0713 9.19863 9.72571 8.10475 9.0862 7.20107C8.44669 6.29739 7.54691 5.63143 6.51872 5.30077C6.89321 4.74356 7.39685 4.29465 7.98256 3.99603C8.56827 3.6974 9.21692 3.5588 9.86784 3.5932C10.5188 3.62759 11.1507 3.83386 11.7046 4.19271C12.2584 4.55155 12.7162 5.05126 13.0349 5.6451C13.3536 6.23894 13.523 6.90752 13.5272 7.58832C13.5313 8.26912 13.3702 8.9399 13.0587 9.53795C12.7472 10.136 12.2957 10.6418 11.7462 11.008C11.1968 11.3742 10.5674 11.5889 9.91699 11.6319V11.6211Z" fill="white"/>
</svg>
