<svg width="21" height="22" viewBox="0 0 21 22" fill="none" xmlns="http://www.w3.org/2000/svg">
<path d="M19.8296 0.801515C19.7658 0.734793 19.688 0.684524 19.6023 0.654695C19.5166 0.624865 19.4255 0.616295 19.3361 0.629665L13.5342 1.48891C13.3919 1.51213 13.2629 1.5897 13.1722 1.70659L5.49483 11.4333C5.16899 11.2837 4.80763 11.2397 4.45758 11.3071C4.10754 11.3745 3.78494 11.5502 3.53161 11.8114L2.70903 12.6821C2.65497 12.7385 2.61209 12.8054 2.58283 12.8792C2.55357 12.9529 2.53852 13.0319 2.53852 13.1117C2.53852 13.1915 2.55357 13.2705 2.58283 13.3442C2.61209 13.418 2.65497 13.4849 2.70903 13.5413L3.94838 14.8474L2.00709 16.8294H1.7658C1.29938 16.8294 0.851892 17.0221 0.521053 17.3656C0.190215 17.709 0.00289706 18.1752 0 18.6625V19.6821C0.00289706 20.1693 0.190215 20.6355 0.521053 20.979C0.851892 21.3224 1.29938 21.5152 1.7658 21.5152H2.73096C3.19637 21.5152 3.64272 21.322 3.97182 20.9783C4.30091 20.6345 4.4858 20.1683 4.4858 19.6821V19.4301L6.39418 17.4366L7.63353 18.7427C7.74444 18.8574 7.89422 18.9218 8.05031 18.9218C8.2064 18.9218 8.35618 18.8574 8.46708 18.7427L9.28966 17.8719C9.55065 17.6072 9.72586 17.2639 9.79076 16.89C9.85566 16.5161 9.807 16.1304 9.65159 15.7868L18.9632 7.76717C19.0736 7.6663 19.1472 7.52869 19.1716 7.37764L20.0051 1.31706C20.0184 1.2227 20.0093 1.12637 19.9787 1.03651C19.9481 0.946639 19.8969 0.86596 19.8296 0.801515ZM3.32322 19.6821C3.32035 19.8442 3.25668 19.9986 3.14592 20.1122C3.03516 20.2257 2.88616 20.2893 2.73096 20.2893H1.7658C1.61061 20.2893 1.4616 20.2257 1.35084 20.1122C1.24008 19.9986 1.17642 19.8442 1.17355 19.6821V18.6625C1.18196 18.5044 1.24806 18.3557 1.35823 18.2471C1.4684 18.1384 1.61426 18.0779 1.7658 18.0782H2.00709L3.32322 19.453V19.6821ZM3.90451 18.3073L3.07096 17.4366L4.73806 15.7066L5.56063 16.5773L3.90451 18.3073ZM8.46708 17.0127L8.05031 17.4366L3.90451 13.1174L4.32128 12.6821C4.37527 12.6256 4.43938 12.5808 4.50995 12.5503C4.58053 12.5197 4.65617 12.504 4.73257 12.504C4.80897 12.504 4.88462 12.5197 4.95519 12.5503C5.02576 12.5808 5.08987 12.6256 5.14386 12.6821L8.43418 16.1191C8.54991 16.2343 8.6181 16.3921 8.62424 16.5589C8.63038 16.7258 8.574 16.8886 8.46708 17.0127ZM18.0419 6.97666L8.91676 14.8818L8.05031 13.9767L14.8613 6.86209C14.9545 6.74337 15.0022 6.59266 14.995 6.43926C14.9878 6.28586 14.9262 6.14075 14.8222 6.03215C14.7183 5.92355 14.5794 5.85922 14.4325 5.85169C14.2857 5.84416 14.1414 5.89395 14.0277 5.99138L7.21676 13.1174L6.35031 12.2124L13.929 2.66895L18.7329 1.95864L18.0419 6.97666Z" fill="#343434"/>
</svg>
