<svg width="21" height="20" viewBox="0 0 21 20" fill="none" xmlns="http://www.w3.org/2000/svg">
<path d="M15.0317 0.53989C14.8957 0.400941 14.7329 0.290628 14.5531 0.215507C14.3733 0.140387 14.1802 0.101993 13.9852 0.102607H7.48616C7.29041 0.103342 7.09683 0.143372 6.917 0.220299C6.73717 0.297225 6.5748 0.409467 6.43961 0.550301C6.29897 0.684941 6.18744 0.846731 6.11186 1.02576C6.03628 1.20479 5.99824 1.39728 6.00006 1.59145V18.5309C6.00003 18.7248 6.0389 18.9168 6.11437 19.0956C6.18985 19.2743 6.30042 19.4363 6.43961 19.5721C6.5747 19.7116 6.73752 19.8216 6.91771 19.8951C7.09789 19.9686 7.29148 20.004 7.48616 19.999H14.0166C14.4085 19.9902 14.7825 19.8339 15.0631 19.5617C15.3424 19.2862 15.5004 18.9118 15.5027 18.5205V1.58104C15.4999 1.38469 15.4566 1.191 15.3756 1.01193C15.2946 0.832857 15.1776 0.672204 15.0317 0.53989V0.53989ZM12.7189 7.172C12.6567 7.23079 12.6078 7.30201 12.5753 7.38097C12.5429 7.45994 12.5276 7.54485 12.5305 7.63011C12.5268 7.71702 12.5416 7.80373 12.5741 7.8845C12.6066 7.96527 12.6559 8.03825 12.7189 8.09863C12.7818 8.16191 12.8568 8.21202 12.9395 8.246C13.0221 8.27997 13.1108 8.29713 13.2003 8.29645H14.1526V9.40006H11.5572C11.3838 9.40001 11.2163 9.46295 11.0863 9.57706C10.9907 9.66903 10.9248 9.78723 10.897 9.9166C10.8691 10.046 10.8807 10.1806 10.93 10.3035C10.9794 10.4263 11.0645 10.5317 11.1743 10.6063C11.2841 10.6809 11.4138 10.7213 11.5467 10.7223H14.1317V11.7635H13.1584C12.9826 11.7662 12.8149 11.8376 12.6916 11.9623C12.5682 12.0869 12.4991 12.2549 12.4991 12.4298C12.5 12.6091 12.5714 12.781 12.6979 12.9087C12.8242 13.0302 12.9933 13.0975 13.1689 13.0961H14.1212V14.1373H13.148C12.9712 14.14 12.8024 14.211 12.6773 14.3354C12.5523 14.4598 12.4809 14.6277 12.4782 14.8036C12.4834 14.9787 12.5557 15.1452 12.6802 15.269C12.8047 15.3928 12.972 15.4647 13.148 15.47H14.1212V16.5632H11.5467C11.3718 16.5685 11.2056 16.6407 11.0828 16.7648C10.96 16.8889 10.89 17.0554 10.8874 17.2295C10.886 17.3174 10.9024 17.4047 10.9355 17.4861C10.9687 17.5676 11.018 17.6416 11.0805 17.7038C11.1429 17.766 11.2173 17.815 11.2992 17.848C11.3811 17.881 11.4689 17.8972 11.5572 17.8958H14.1317V18.4372C14.1318 18.4769 14.1167 18.5151 14.0895 18.5441C14.0623 18.5731 14.025 18.5908 13.9852 18.5934H7.48616C7.4555 18.603 7.42262 18.603 7.39197 18.5934C7.37908 18.5599 7.37908 18.5228 7.39197 18.4893V1.58104C7.37739 1.54424 7.37739 1.50331 7.39197 1.46651C7.42236 1.45535 7.45576 1.45535 7.48616 1.46651H13.9747C14.0185 1.46823 14.0598 1.48691 14.0899 1.51857C14.0978 1.5493 14.0978 1.58154 14.0899 1.61227V2.16408H11.5467C11.4525 2.15229 11.3568 2.16058 11.266 2.18842C11.1752 2.21625 11.0914 2.26298 11.0201 2.32551C10.9489 2.38804 10.8918 2.46494 10.8527 2.55109C10.8136 2.63725 10.7934 2.73069 10.7934 2.82521C10.7934 2.91973 10.8136 3.01317 10.8527 3.09933C10.8918 3.18548 10.9489 3.26238 11.0201 3.32491C11.0914 3.38744 11.1752 3.43417 11.266 3.462C11.3568 3.48984 11.4525 3.49813 11.5467 3.48634H14.1317V4.54831H13.1794C13.0059 4.55243 12.8408 4.62334 12.7189 4.74613C12.6559 4.8065 12.6066 4.87949 12.5741 4.96026C12.5416 5.04102 12.5268 5.12773 12.5305 5.21465C12.5332 5.38777 12.6035 5.55305 12.7266 5.67548C12.8497 5.79792 13.0158 5.86788 13.1898 5.87057H14.1526V6.93254H13.2003C13.1074 6.93517 13.0161 6.95797 12.933 6.99933C12.8498 7.04069 12.7768 7.09962 12.7189 7.172V7.172Z" fill="white"/>
</svg>
