<svg width="35" height="25" viewBox="0 0 35 25" fill="none" xmlns="http://www.w3.org/2000/svg">
<path d="M35 12.6077C35 12.6924 35 12.7886 34.9961 12.9001C34.9922 13.2118 34.9844 13.5619 34.9766 13.9351C34.9453 15.0085 34.8906 16.078 34.8047 17.086C34.6875 18.4749 34.5156 19.633 34.2812 20.5025C34.0339 21.4099 33.5491 22.2374 32.8753 22.9024C32.2014 23.5675 31.3622 24.0466 30.4414 24.2921C29.3359 24.5845 27.1719 24.7653 24.125 24.8769C22.6758 24.9307 21.125 24.9654 19.5742 24.9846C19.0312 24.9923 18.5273 24.9962 18.0742 25H16.9258C16.4727 24.9962 15.9688 24.9923 15.4258 24.9846C13.875 24.9654 12.3242 24.9307 10.875 24.8769C7.82812 24.7615 5.66016 24.5806 4.55859 24.2921C3.6375 24.0472 2.79793 23.5683 2.124 22.9032C1.45007 22.238 0.965469 21.4102 0.71875 20.5025C0.480469 19.633 0.3125 18.4749 0.195312 17.086C0.109375 16.078 0.0546874 15.0085 0.0234374 13.9351C0.0117187 13.5619 0.00781244 13.2118 0.00390619 12.9001C0.00390619 12.7886 0 12.6924 0 12.6077V12.3923C0 12.3076 -5.96629e-08 12.2114 0.00390619 12.0999C0.00781244 11.7882 0.0156249 11.4381 0.0234374 11.0649C0.0546874 9.99154 0.109375 8.92198 0.195312 7.91397C0.3125 6.52509 0.484375 5.36703 0.71875 4.49754C1.21875 2.65466 2.6875 1.20037 4.55859 0.707911C5.66016 0.415512 7.82812 0.23469 10.875 0.123117C12.3242 0.0692539 13.875 0.034626 15.4258 0.0153885C15.9688 0.00769424 16.4727 0.00384712 16.9258 -1.90735e-06H18.0742C18.5273 0.00384712 19.0312 0.00769424 19.5742 0.0153885C21.125 0.034626 22.6758 0.0692539 24.125 0.123117C27.1719 0.238537 29.3398 0.419359 30.4414 0.707911C32.3125 1.20037 33.7812 2.65082 34.2812 4.49754C34.5195 5.36703 34.6875 6.52509 34.8047 7.91397C34.8906 8.92198 34.9453 9.99154 34.9766 11.0649C34.9883 11.4381 34.9922 11.7882 34.9961 12.0999C34.9961 12.2114 35 12.3076 35 12.3923V12.6077ZM32.1875 12.4077C32.1875 12.3269 32.1875 12.2384 32.1836 12.1345C32.1797 11.8344 32.1719 11.5035 32.1641 11.1457C32.1367 10.1223 32.082 9.09896 32 8.14866C31.8945 6.90982 31.7461 5.89412 31.5625 5.21314C31.3203 4.32441 30.6094 3.62034 29.7109 3.38566C28.8906 3.1702 26.8242 2.99708 24.0156 2.8932C22.5938 2.83934 21.0625 2.80471 19.5352 2.78547C19 2.77778 18.5039 2.77393 18.0586 2.77393H16.9414L15.4648 2.78547C13.9375 2.80471 12.4102 2.83934 10.9844 2.8932C8.17578 3.00093 6.10547 3.1702 5.28906 3.38566C4.39062 3.62419 3.67969 4.32441 3.4375 5.21314C3.25391 5.89412 3.10547 6.90982 3 8.14866C2.91797 9.09896 2.86719 10.1223 2.83594 11.1457C2.82422 11.5035 2.82031 11.8383 2.81641 12.1345C2.81641 12.2384 2.8125 12.3307 2.8125 12.4077V12.5923C2.8125 12.6731 2.8125 12.7616 2.81641 12.8655C2.82031 13.1656 2.82813 13.4965 2.83594 13.8543C2.86328 14.8777 2.91797 15.901 3 16.8513C3.10547 18.0902 3.25391 19.1059 3.4375 19.7869C3.67969 20.6756 4.39062 21.3797 5.28906 21.6143C6.10938 21.8298 8.17578 22.0029 10.9844 22.1068C12.4063 22.1607 13.9375 22.1953 15.4648 22.2145C16 22.2222 16.4961 22.2261 16.9414 22.2261H18.0586L19.5352 22.2145C21.0625 22.1953 22.5898 22.1607 24.0156 22.1068C26.8242 21.9991 28.8945 21.8298 29.7109 21.6143C30.6094 21.3758 31.3203 20.6756 31.5625 19.7869C31.7461 19.1059 31.8945 18.0902 32 16.8513C32.082 15.901 32.1328 14.8777 32.1641 13.8543C32.1758 13.4965 32.1797 13.1617 32.1836 12.8655C32.1836 12.7616 32.1875 12.6693 32.1875 12.5923V12.4077ZM14.0234 7.34457L23.0859 12.5385L14.0234 17.6554V7.34457Z" fill="#343434"/>
</svg>
