<svg width="34" height="30" viewBox="0 0 34 30" fill="none" xmlns="http://www.w3.org/2000/svg">
<path d="M32.3885 6.1479C31.8735 4.94483 31.1309 3.85462 30.2023 2.93829C29.2731 2.01924 28.1774 1.28887 26.975 0.786925C25.7282 0.264367 24.3909 -0.003108 23.0408 2.72463e-05C21.1466 2.72463e-05 19.2986 0.523333 17.6926 1.5118C17.3084 1.74826 16.9434 2.00797 16.5976 2.29095C16.2519 2.00797 15.8869 1.74826 15.5027 1.5118C13.8967 0.523333 12.0487 2.72463e-05 10.1545 2.72463e-05C8.7906 2.72463e-05 7.46894 0.263619 6.22027 0.786925C5.01387 1.29085 3.92657 2.01572 2.99295 2.93829C2.06317 3.85358 1.32043 4.94406 0.80683 6.1479C0.272785 7.39996 0 8.72955 0 10.0979C0 11.3887 0.261259 12.7338 0.779936 14.1022C1.21409 15.2457 1.8365 16.4318 2.6318 17.6296C3.89199 19.5252 5.62476 21.5021 7.7763 23.5062C11.3417 26.8282 14.8726 29.123 15.0224 29.216L15.933 29.8052C16.3364 30.0649 16.8551 30.0649 17.2585 29.8052L18.169 29.216C18.3189 29.1191 21.8459 26.8282 25.4151 23.5062C27.5667 21.5021 29.2995 19.5252 30.5596 17.6296C31.3549 16.4318 31.9812 15.2457 32.4115 14.1022C32.9302 12.7338 33.1914 11.3887 33.1914 10.0979C33.1953 8.72955 32.9225 7.39996 32.3885 6.1479Z" fill="#D23030"/>
</svg>
