<svg width="16" height="16" viewBox="0 0 16 16" fill="none" xmlns="http://www.w3.org/2000/svg">
<path d="M15.9998 0.376929L16 0.375726C16 0.170412 15.8348 0.00409155 15.6309 0.00385085V0H10.652V0.00409187C10.5546 0.00497992 10.4615 0.0444925 10.3929 0.114039C10.3243 0.183586 10.2858 0.277544 10.2857 0.375485V2.0293C10.2857 2.23317 10.4495 2.39853 10.652 2.40046V2.4007H11.8851L9.79927 4.49788C8.75886 3.78119 7.52678 3.3985 6.26561 3.40031C2.8052 3.40031 0 6.22078 0 9.70003C0 13.1793 2.8052 16 6.26561 16C9.72602 16 12.5312 13.1793 12.5312 9.70003C12.5331 8.45574 12.1666 7.23905 11.4784 6.20489L13.6116 4.06005V5.37738C13.6116 5.58269 13.777 5.74901 13.9812 5.74901H15.6299C15.8339 5.74901 15.9995 5.58269 15.9995 5.37738L15.9993 5.37618V0.376929H15.9998ZM6.26561 13.5991C4.12401 13.5991 2.38793 11.8535 2.38793 9.70003C2.38793 7.54677 4.12401 5.801 6.26561 5.801C8.40721 5.801 10.1435 7.54677 10.1435 9.70003C10.1435 11.8535 8.40721 13.5991 6.26561 13.5991V13.5991Z" fill="#FA4A0C"/>
</svg>
