<svg width="19" height="22" viewBox="0 0 19 22" fill="none" xmlns="http://www.w3.org/2000/svg">
<path d="M15.1751 0.170898V1.44836H16.5496L13.8548 4.10504C13.2871 3.49005 12.5894 3.02246 11.8176 2.73972C11.0459 2.45698 10.2214 2.36695 9.41037 2.47684C8.59929 2.58673 7.82413 2.89348 7.14694 3.37253C6.46975 3.85158 5.90936 4.48962 5.51064 5.23554H5.27255C3.92891 5.22923 2.63412 5.7614 1.65487 6.72244C0.675611 7.68349 0.0864684 9.00022 0.00878642 10.4014C-0.0688955 11.8026 0.370799 13.1816 1.2373 14.2543C2.10381 15.327 3.33114 16.0117 4.66649 16.1675V17.8745H2.82666V19.152H4.66649V21.0626H5.88943V19.2085H7.80501V17.9311H5.88943V16.224C6.71819 16.1235 7.51198 15.8177 8.20473 15.332C8.89747 14.8463 9.46913 14.1948 9.87211 13.4317H10.0994C11.4925 13.4317 12.8287 12.8544 13.8148 11.8265C14.8008 10.7985 15.3563 9.40395 15.3591 7.94875C15.3612 6.95677 15.1029 5.98318 14.6124 5.1338L17.5344 2.23972V3.82242H18.7574V0.170898H15.1751ZM5.27255 14.9918C4.20479 15.0278 3.16709 14.6192 2.38772 13.8559C1.60835 13.0927 1.15115 12.0373 1.11671 10.922C1.08226 9.80661 1.47339 8.72264 2.20405 7.90852C2.93471 7.0944 3.94505 6.61682 5.01281 6.58084C4.90887 7.02884 4.85441 7.4878 4.85047 7.94875C4.86151 9.11631 5.22834 10.2498 5.89777 11.1849C6.56719 12.12 7.50439 12.808 8.57341 13.1491C8.20649 13.7117 7.7146 14.1733 7.13977 14.4942C6.56495 14.8151 5.92428 14.9858 5.27255 14.9918ZM9.12536 12.0186C8.25639 11.7902 7.48484 11.2663 6.93228 10.5295C6.37973 9.79267 6.07757 8.88473 6.07341 7.94875C6.073 7.5268 6.13506 7.10733 6.25739 6.7052C7.12528 6.93391 7.89544 7.45822 8.44619 8.19525C8.99693 8.93229 9.29684 9.84002 9.29852 10.775C9.29648 11.1959 9.2382 11.6145 9.12536 12.0186ZM10.3591 12.1316C10.468 11.6884 10.5225 11.2326 10.5215 10.775C10.5203 9.60112 10.1593 8.45847 9.49129 7.5145C8.82327 6.57053 7.88338 5.87488 6.80934 5.52947C7.20053 4.94742 7.72663 4.4785 8.33845 4.16656C8.95027 3.85462 9.62784 3.70985 10.3078 3.74578C10.9877 3.78171 11.6478 3.99717 12.2264 4.37201C12.805 4.74686 13.2831 5.26884 13.616 5.88916C13.949 6.50947 14.1259 7.20786 14.1303 7.91901C14.1346 8.63016 13.9662 9.33085 13.6409 9.95556C13.3156 10.5803 12.8439 11.1086 12.2699 11.4911C11.696 11.8737 11.0386 12.0979 10.3591 12.1429V12.1316Z" fill="#343434"/>
</svg>
