<svg width="10" height="21" viewBox="0 0 10 21" fill="none" xmlns="http://www.w3.org/2000/svg">
<path d="M9.03174 0.566881C8.89566 0.420985 8.73289 0.305156 8.55311 0.22628C8.37332 0.147403 8.18019 0.107089 7.9852 0.107735H1.48616C1.29041 0.108506 1.09683 0.150537 0.917 0.231311C0.737173 0.312084 0.574802 0.429937 0.439612 0.577813C0.298969 0.719185 0.187441 0.889064 0.111859 1.07704C0.036278 1.26502 -0.00176437 1.46714 6.28329e-05 1.67102V19.4575C3.49879e-05 19.6611 0.0388968 19.8626 0.114372 20.0503C0.189847 20.2381 0.300419 20.4082 0.439612 20.5507C0.574701 20.6972 0.737522 20.8127 0.917705 20.8899C1.09789 20.9671 1.29148 21.0042 1.48616 20.9989H8.01659C8.40849 20.9897 8.78248 20.8256 9.06314 20.5397C9.34236 20.2505 9.50042 19.8573 9.50269 19.4465V1.66009C9.49987 1.45392 9.45663 1.25055 9.37563 1.06252C9.29463 0.874497 9.17759 0.705812 9.03174 0.566881ZM6.71888 7.5306C6.65673 7.59233 6.60781 7.66711 6.57534 7.75002C6.54287 7.83293 6.52759 7.92208 6.5305 8.01161C6.52676 8.10287 6.54162 8.19391 6.5741 8.27872C6.60657 8.36353 6.65592 8.44016 6.71888 8.50355C6.78178 8.57 6.85678 8.62262 6.93946 8.65829C7.02215 8.69397 7.11083 8.71198 7.20029 8.71126H8.15264V9.87006H5.55721C5.3838 9.87 5.21633 9.93609 5.08627 10.0559C4.99068 10.1525 4.92479 10.2766 4.89696 10.4124C4.86914 10.5483 4.88066 10.6897 4.93005 10.8186C4.97943 10.9476 5.06446 11.0583 5.17428 11.1366C5.28411 11.215 5.41377 11.2574 5.54675 11.2584H8.13171V12.3516H7.15843C6.98261 12.3545 6.81492 12.4295 6.69157 12.5604C6.56821 12.6913 6.49908 12.8676 6.4991 13.0513C6.50002 13.2396 6.57138 13.4201 6.69795 13.5542C6.82416 13.6817 6.99328 13.7524 7.16889 13.7509H8.12125V14.8441H7.14796C6.97116 14.847 6.80236 14.9216 6.67734 15.0522C6.55231 15.1828 6.48087 15.3591 6.47817 15.5438C6.48343 15.7276 6.55568 15.9024 6.68017 16.0324C6.80466 16.1625 6.97199 16.238 7.14796 16.2435H8.12125V17.3913H5.54675C5.37178 17.3969 5.20562 17.4728 5.08282 17.6031C4.96002 17.7334 4.89004 17.9081 4.88742 18.091C4.88601 18.1833 4.90237 18.2749 4.93553 18.3605C4.96869 18.446 5.01797 18.5237 5.08045 18.589C5.14293 18.6543 5.21733 18.7057 5.29923 18.7404C5.38113 18.775 5.46887 18.7921 5.55721 18.7906H8.13171V19.3591C8.1318 19.4007 8.11671 19.4409 8.08949 19.4713C8.06228 19.5018 8.02499 19.5203 7.9852 19.5231H1.48616C1.4555 19.5331 1.42262 19.5331 1.39197 19.5231C1.37908 19.4879 1.37908 19.4489 1.39197 19.4137V1.66009C1.37739 1.62145 1.37739 1.57847 1.39197 1.53983C1.42236 1.52812 1.45576 1.52812 1.48616 1.53983H7.97473C8.01847 1.54164 8.05979 1.56126 8.08985 1.59449C8.09783 1.62676 8.09783 1.66062 8.08985 1.69288V2.27228H5.54675C5.45248 2.2599 5.35676 2.26861 5.26596 2.29784C5.17516 2.32706 5.09135 2.37613 5.0201 2.44179C4.94885 2.50744 4.89179 2.58818 4.8527 2.67864C4.81361 2.76911 4.7934 2.86722 4.7934 2.96647C4.7934 3.06572 4.81361 3.16383 4.8527 3.25429C4.89179 3.34475 4.94885 3.42549 5.0201 3.49115C5.09135 3.55681 5.17516 3.60588 5.26596 3.6351C5.35676 3.66432 5.45248 3.67304 5.54675 3.66065H8.13171V4.77572H7.17936C7.0059 4.78005 6.84082 4.85451 6.71888 4.98343C6.65592 5.04682 6.60657 5.12346 6.5741 5.20826C6.54162 5.29307 6.52676 5.38412 6.5305 5.47537C6.5332 5.65716 6.60353 5.8307 6.7266 5.95926C6.84966 6.08781 7.0158 6.16128 7.18982 6.16409H8.15264V7.27916H7.20029C7.10736 7.28193 7.01613 7.30587 6.93297 7.3493C6.84982 7.39273 6.77675 7.4546 6.71888 7.5306Z" fill="#343434"/>
</svg>
