<svg width="19" height="22" viewBox="0 0 19 22" fill="none" xmlns="http://www.w3.org/2000/svg">
<path d="M18.8667 17.0921L17.3789 8.33616C17.2332 7.45963 16.796 6.66496 16.1442 6.09228C15.4925 5.51961 14.6681 5.2057 13.8164 5.20591H11.7209C11.9707 4.83448 12.1333 4.40678 12.1954 3.95748C12.2575 3.50817 12.2174 3.0499 12.0783 2.61981C11.9392 2.18972 11.7051 1.79992 11.3948 1.482C11.0846 1.16408 10.707 0.926986 10.2927 0.789937C9.87841 0.652889 9.43901 0.619742 9.01014 0.693184C8.58128 0.766625 8.17501 0.944589 7.82427 1.21265C7.47354 1.48071 7.1882 1.83132 6.99139 2.23607C6.79459 2.64082 6.69185 3.08831 6.6915 3.54228C6.68611 4.13849 6.86223 4.72106 7.19443 5.20591H5.09887C4.24625 5.20831 3.42171 5.52455 2.77018 6.09904C2.11864 6.67353 1.68179 7.46952 1.53641 8.34711L0.0590326 17.1031C-0.0364615 17.6474 -0.0158974 18.2071 0.119261 18.7422C0.254419 19.2773 0.500848 19.7747 0.841004 20.199C1.18116 20.6233 1.60668 20.9641 2.08727 21.197C2.56786 21.4299 3.0917 21.5493 3.62149 21.5467H15.3043C15.834 21.5458 16.357 21.4236 16.8367 21.1888C17.3163 20.954 17.7409 20.6123 18.0804 20.1876C18.42 19.763 18.6664 19.2658 18.8023 18.731C18.9381 18.1962 18.9601 17.6368 18.8667 17.0921ZM9.43669 1.90054C9.75339 1.89401 10.0648 1.98629 10.331 2.16557C10.5972 2.34484 10.8063 2.60298 10.9313 2.90698C11.0564 3.21098 11.0918 3.54703 11.0331 3.87219C10.9744 4.19734 10.8242 4.49682 10.6017 4.73234C10.3792 4.96787 10.0946 5.12874 9.78411 5.1944C9.47365 5.26005 9.15149 5.22751 8.85883 5.10093C8.56616 4.97435 8.31627 4.75948 8.14111 4.48379C7.96595 4.20809 7.87347 3.8841 7.87549 3.55322C7.87814 3.11953 8.04283 2.70406 8.33445 2.39535C8.62607 2.08664 9.02158 1.90909 9.43669 1.90054ZM17.1484 19.4124C16.9185 19.6988 16.6316 19.9294 16.3077 20.0882C15.9838 20.247 15.6306 20.3301 15.2728 20.3318H3.62149C3.26542 20.3293 2.91413 20.2459 2.59206 20.0872C2.26998 19.9286 1.98486 19.6986 1.75651 19.4132C1.52815 19.1278 1.36206 18.7938 1.26976 18.4346C1.17747 18.0753 1.16119 17.6994 1.22207 17.3329L2.69945 8.57695C2.79827 7.98458 3.09429 7.44774 3.53524 7.06123C3.9762 6.67472 4.53371 6.46339 5.10935 6.46458H13.8269C14.402 6.46555 14.9584 6.67765 15.3989 7.06379C15.8395 7.44993 16.136 7.98553 16.2368 8.57695L17.7142 17.3329C17.7725 17.6958 17.755 18.0677 17.6627 18.4229C17.5705 18.778 17.4057 19.1082 17.1798 19.3906L17.1484 19.4124Z" fill="#343434"/>
<path d="M8.98609 10.9082C8.87613 10.7939 8.72733 10.7297 8.57221 10.7297C8.4171 10.7297 8.26829 10.7939 8.15834 10.9082L6.50284 12.7141V11.3569C6.50287 11.1933 6.44138 11.0363 6.33164 10.9196C6.22189 10.8029 6.07266 10.7359 5.91608 10.7331C5.75853 10.7359 5.60818 10.8025 5.49675 10.9189C5.38533 11.0353 5.32154 11.1923 5.31885 11.3569V15.4065C5.32159 15.5701 5.38573 15.726 5.49744 15.8406C5.60914 15.9553 5.75949 16.0195 5.91608 16.0195C6.0717 16.0195 6.22095 15.9549 6.33098 15.8399C6.44102 15.725 6.50284 15.5691 6.50284 15.4065V14.0494L8.15834 15.8334C8.26967 15.9498 8.41994 16.0165 8.57745 16.0195C8.65332 16.0204 8.7286 16.0054 8.7988 15.9753C8.869 15.9452 8.93269 15.9007 8.98609 15.8443C9.09615 15.7276 9.15784 15.5704 9.15784 15.4065C9.15784 15.2427 9.09615 15.0855 8.98609 14.9687L7.52967 13.3817L9.00704 11.7838C9.11435 11.6642 9.17231 11.5053 9.16839 11.3415C9.16447 11.1777 9.09898 11.022 8.98609 10.9082Z" fill="#343434"/>
<path d="M13.02 12.933H12.1294C11.9859 12.953 11.8543 13.0267 11.759 13.1405C11.6636 13.2542 11.6111 13.4003 11.6111 13.5514C11.6111 13.7026 11.6636 13.8486 11.759 13.9624C11.8543 14.0761 11.9859 14.1498 12.1294 14.1698H12.4228C12.3913 14.3409 12.3043 14.4953 12.1764 14.607C12.0484 14.7187 11.8875 14.7808 11.7207 14.7827C11.5336 14.7828 11.3539 14.7059 11.2206 14.5686C11.0873 14.4314 11.011 14.2449 11.0082 14.0494V12.7141C11.0082 12.5168 11.0833 12.3274 11.2169 12.1879C11.3505 12.0483 11.5318 11.9699 11.7207 11.9699C11.8282 11.9682 11.9346 11.9931 12.0311 12.0425C12.1276 12.092 12.2116 12.1646 12.2761 12.2545C12.3719 12.3836 12.513 12.4677 12.6682 12.4883C12.8235 12.5088 12.9802 12.464 13.1038 12.3639C13.2275 12.2638 13.308 12.1164 13.3276 11.9542C13.3473 11.7921 13.3045 11.6284 13.2086 11.4992C12.9669 11.1752 12.6344 10.9381 12.2574 10.8213C11.8804 10.7044 11.4778 10.7135 11.1061 10.8474C10.7343 10.9813 10.4119 11.2332 10.1839 11.5679C9.95598 11.9026 9.83388 12.3034 9.83472 12.7141V14.0494C9.83472 14.5719 10.0334 15.073 10.3871 15.4425C10.7408 15.812 11.2205 16.0195 11.7207 16.0195C12.2209 16.0195 12.7007 15.812 13.0543 15.4425C13.408 15.073 13.6068 14.5719 13.6068 14.0494V13.546C13.6068 13.3834 13.5449 13.2275 13.4349 13.1126C13.3249 12.9976 13.1756 12.933 13.02 12.933Z" fill="#343434"/>
</svg>
