<svg width="19" height="21" viewBox="0 0 19 21" fill="none" xmlns="http://www.w3.org/2000/svg">
<path d="M18.0615 16.3906L16.6372 8.00835C16.4977 7.16922 16.0792 6.40847 15.4552 5.86023C14.8313 5.312 14.0421 5.01148 13.2268 5.01169H11.2206C11.4598 4.65611 11.6155 4.24667 11.6749 3.81653C11.7344 3.3864 11.696 2.94769 11.5628 2.53596C11.4296 2.12423 11.2055 1.75106 10.9085 1.44671C10.6115 1.14236 10.2501 0.915383 9.85344 0.784183C9.45681 0.652984 9.03616 0.621252 8.6256 0.691559C8.21504 0.761866 7.82611 0.932235 7.49034 1.18885C7.15458 1.44547 6.88142 1.78112 6.69301 2.1686C6.5046 2.55607 6.40624 2.98447 6.40591 3.41906C6.40076 3.98982 6.56936 4.54753 6.88738 5.01169H4.88125C4.06502 5.01399 3.27568 5.31672 2.65195 5.8667C2.02822 6.41667 1.61002 7.17869 1.47083 8.01882L0.0565132 16.4011C-0.0349054 16.9222 -0.0152189 17.458 0.114171 17.9703C0.243561 18.4825 0.479472 18.9587 0.805111 19.3649C1.13075 19.7711 1.53811 20.0973 1.99818 20.3203C2.45826 20.5433 2.95974 20.6576 3.46693 20.6551H14.6511C15.1582 20.6542 15.6589 20.5372 16.1181 20.3125C16.5773 20.0877 16.9837 19.7605 17.3088 19.354C17.6339 18.9475 17.8698 18.4715 17.9998 17.9595C18.1299 17.4475 18.1509 16.912 18.0615 16.3906V16.3906ZM9.03394 1.84738C9.33713 1.84114 9.63521 1.92948 9.89008 2.1011C10.145 2.27273 10.3451 2.51985 10.4648 2.81087C10.5845 3.1019 10.6184 3.42361 10.5622 3.73489C10.506 4.04616 10.3623 4.33286 10.1493 4.55833C9.93627 4.7838 9.66375 4.93781 9.36654 5.00067C9.06932 5.06352 8.76092 5.03237 8.48074 4.91119C8.20056 4.79001 7.96134 4.58431 7.79366 4.32038C7.62597 4.05646 7.53744 3.74629 7.53938 3.42954C7.54191 3.01435 7.69957 2.61661 7.97874 2.32108C8.25792 2.02554 8.63655 1.85557 9.03394 1.84738V1.84738ZM16.4165 18.6119C16.1964 18.8861 15.9218 19.1068 15.6117 19.2588C15.3016 19.4108 14.9635 19.4904 14.621 19.492H3.46693C3.12605 19.4897 2.78976 19.4098 2.48143 19.2579C2.1731 19.106 1.90015 18.8858 1.68154 18.6126C1.46293 18.3394 1.30392 18.0197 1.21557 17.6758C1.12722 17.3319 1.11164 16.972 1.16992 16.6211L2.58424 8.23886C2.67884 7.67177 2.96223 7.15784 3.38436 6.78782C3.8065 6.41781 4.34022 6.2155 4.89128 6.21664H13.2368C13.7873 6.21757 14.32 6.42062 14.7417 6.79028C15.1635 7.15994 15.4474 7.67268 15.5438 8.23886L16.9582 16.6211C17.014 16.9686 16.9972 17.3245 16.9089 17.6646C16.8206 18.0046 16.6629 18.3206 16.4466 18.5909L16.4165 18.6119Z" fill="white"/>
<path d="M8.60252 10.4706C8.49726 10.3612 8.35481 10.2998 8.20631 10.2998C8.05782 10.2998 7.91536 10.3612 7.8101 10.4706L6.22526 12.1994V10.9002C6.22528 10.7436 6.16642 10.5932 6.06136 10.4815C5.9563 10.3698 5.81343 10.3057 5.66354 10.303C5.51271 10.3056 5.36878 10.3694 5.26211 10.4809C5.15544 10.5923 5.09438 10.7426 5.0918 10.9002V14.777C5.09443 14.9335 5.15582 15.0828 5.26276 15.1925C5.3697 15.3023 5.51363 15.3638 5.66354 15.3637C5.81252 15.3637 5.95539 15.3019 6.06074 15.1919C6.16608 15.0818 6.22526 14.9326 6.22526 14.777V13.4777L7.8101 15.1856C7.91669 15.2971 8.06054 15.3609 8.21133 15.3637C8.28396 15.3646 8.35603 15.3502 8.42323 15.3214C8.49044 15.2926 8.55141 15.25 8.60252 15.1961C8.70788 15.0843 8.76694 14.9338 8.76694 14.777C8.76694 14.6201 8.70788 14.4696 8.60252 14.3579L7.20826 12.8386L8.62258 11.3088C8.72532 11.1944 8.7808 11.0423 8.77705 10.8854C8.77329 10.7286 8.7106 10.5796 8.60252 10.4706Z" fill="white"/>
<path d="M12.4644 12.409H11.6118C11.4744 12.4282 11.3484 12.4987 11.2572 12.6076C11.1659 12.7165 11.1156 12.8563 11.1156 13.001C11.1156 13.1458 11.1659 13.2856 11.2572 13.3944C11.3484 13.5033 11.4744 13.5739 11.6118 13.593H11.8926C11.8626 13.7568 11.7792 13.9047 11.6568 14.0116C11.5343 14.1185 11.3802 14.1779 11.2206 14.1798C11.0414 14.1798 10.8694 14.1062 10.7418 13.9748C10.6141 13.8435 10.5411 13.6649 10.5385 13.4778V12.1995C10.5385 12.0105 10.6103 11.8293 10.7383 11.6957C10.8662 11.562 11.0397 11.487 11.2206 11.487C11.3235 11.4853 11.4253 11.5092 11.5177 11.5565C11.6101 11.6039 11.6905 11.6734 11.7522 11.7594C11.844 11.8831 11.979 11.9636 12.1276 11.9832C12.2762 12.0029 12.4262 11.9601 12.5446 11.8642C12.663 11.7683 12.7401 11.6272 12.7589 11.472C12.7777 11.3168 12.7367 11.1601 12.6449 11.0364C12.4136 10.7262 12.0952 10.4993 11.7343 10.3874C11.3734 10.2755 10.988 10.2842 10.6321 10.4124C10.2762 10.5406 9.96758 10.7817 9.74936 11.1021C9.53113 11.4226 9.41424 11.8062 9.41504 12.1995V13.4778C9.41504 13.978 9.60527 14.4577 9.94387 14.8114C10.2825 15.1651 10.7417 15.3638 11.2206 15.3638C11.6994 15.3638 12.1587 15.1651 12.4973 14.8114C12.8359 14.4577 13.0261 13.978 13.0261 13.4778V12.9958C13.0261 12.8402 12.9669 12.6909 12.8616 12.5809C12.7562 12.4709 12.6133 12.409 12.4644 12.409Z" fill="white"/>
</svg>
